<svg xmlns="http://www.w3.org/2000/svg" viewBox="0 0 2450 410"><defs><style>.cls-1{fill:#fff;}</style></defs><g id="Layer_2" data-name="Layer 2"><g id="Layer_1-2" data-name="Layer 1"><path class="cls-1" d="M2361.44836,48.08793V122.582q-65.21285-31.50733-127.49477-31.50733-60.08375,0-92.568,30.28611-32.48625,30.28807-32.4843,77.18074,0,44.94264,32.4843,72.78437,32.4804,27.84369,85.485,27.84368,28.084,0,56.4201-12.21214V247.14585h-49.33706V184.61968H2368.5314V324.08234q-20.27607,20.27607-61.67132,33.09491A275.868,275.868,0,0,1,2224.91661,370q-89.15256,0-146.42359-49.21493-57.27885-49.213-57.27495-125.17446,0-77.66924,57.27495-126.63992Q2135.766,20.00391,2226.87055,20,2302.09538,20,2361.44836,48.08793Z"/><path class="cls-1" d="M1991.21807,20V370h-73.63479l-193.187-224.23049V370h-87.18683V20h79.94832l186.87344,213.95848V20Z"/><path class="cls-1" d="M1607.20948,20V370h-87.18683V20Z"/><path class="cls-1" d="M1490.02265,305.86256V370H1223.20089V20h87.18683V305.86256Z"/><path class="cls-1" d="M1037.74678,20l155.45411,350H1099.449l-28.8388-69.14817H913.87183L887.73783,370H795.34835L936.7253,20Zm7.37079,219.72083L988.387,103.67931,936.97584,239.72083Z"/><path class="cls-1" d="M501.46861,20H652.79287q54.116,0,85.05727,26.03629,30.9393,26.03655,30.9413,61.581,0,45.5664-47.85254,69.84517,36.07731,9.53042,55.24338,33.59549,19.16607,24.06882,19.16607,56.15533,0,45.625-31.31711,74.20551Q732.71013,370.004,671.83368,370H501.46861Zm87.18683,64.13744V159.048h45.59771q21.04509,0,32.82033-10.77309a35.12092,35.12092,0,0,0,11.77523-27.058A34.09439,34.09439,0,0,0,667.07348,94.66q-11.77925-10.52256-32.82033-10.52255Zm0,139.048v82.67716h49.10522q34.82062,0,50.10738-9.64567,15.27873-9.64165,15.28274-33.44667,0-18.28518-14.53113-28.937-14.53314-10.6458-38.83322-10.64781Z"/><path class="cls-1" d="M286.4686,400V52.56207L81.4686,0V400Zm-10-10h-185V12.88757L273.98483,59.68634l2.48377.6369Z"/><path class="cls-1" d="M276.46863,49.99976V400h195V0ZM431.46863,225a20,20,0,1,1,20-20A20,20,0,0,1,431.46863,225Z"/><rect class="cls-1" y="390" width="2450" height="20"/></g></g></svg>